<svg id="visual" viewBox="0 0 900 600" width="900" height="600" xmlns="http://www.w3.org/2000/svg" xmlns:xlink="http://www.w3.org/1999/xlink" version="1.1"><rect x="0" y="0" width="900" height="600" fill="#F4CE14"></rect><defs><linearGradient id="grad1_0" x1="33.3%" y1="0%" x2="100%" y2="100%"><stop offset="20%" stop-color="#f5f7f8" stop-opacity="1"></stop><stop offset="80%" stop-color="#f5f7f8" stop-opacity="1"></stop></linearGradient></defs><defs><linearGradient id="grad1_1" x1="33.3%" y1="0%" x2="100%" y2="100%"><stop offset="20%" stop-color="#f5f7f8" stop-opacity="1"></stop><stop offset="80%" stop-color="#cdf8fe" stop-opacity="1"></stop></linearGradient></defs><defs><linearGradient id="grad1_2" x1="33.3%" y1="0%" x2="100%" y2="100%"><stop offset="20%" stop-color="#a4f9f0" stop-opacity="1"></stop><stop offset="80%" stop-color="#cdf8fe" stop-opacity="1"></stop></linearGradient></defs><defs><linearGradient id="grad1_3" x1="33.3%" y1="0%" x2="100%" y2="100%"><stop offset="20%" stop-color="#a4f9f0" stop-opacity="1"></stop><stop offset="80%" stop-color="#90f8cc" stop-opacity="1"></stop></linearGradient></defs><defs><linearGradient id="grad1_4" x1="33.3%" y1="0%" x2="100%" y2="100%"><stop offset="20%" stop-color="#9ff197" stop-opacity="1"></stop><stop offset="80%" stop-color="#90f8cc" stop-opacity="1"></stop></linearGradient></defs><defs><linearGradient id="grad1_5" x1="33.3%" y1="0%" x2="100%" y2="100%"><stop offset="20%" stop-color="#9ff197" stop-opacity="1"></stop><stop offset="80%" stop-color="#c4e45a" stop-opacity="1"></stop></linearGradient></defs><defs><linearGradient id="grad1_6" x1="33.3%" y1="0%" x2="100%" y2="100%"><stop offset="20%" stop-color="#f4ce14" stop-opacity="1"></stop><stop offset="80%" stop-color="#c4e45a" stop-opacity="1"></stop></linearGradient></defs><defs><linearGradient id="grad2_0" x1="0%" y1="0%" x2="66.7%" y2="100%"><stop offset="20%" stop-color="#f5f7f8" stop-opacity="1"></stop><stop offset="80%" stop-color="#f5f7f8" stop-opacity="1"></stop></linearGradient></defs><defs><linearGradient id="grad2_1" x1="0%" y1="0%" x2="66.7%" y2="100%"><stop offset="20%" stop-color="#cdf8fe" stop-opacity="1"></stop><stop offset="80%" stop-color="#f5f7f8" stop-opacity="1"></stop></linearGradient></defs><defs><linearGradient id="grad2_2" x1="0%" y1="0%" x2="66.7%" y2="100%"><stop offset="20%" stop-color="#cdf8fe" stop-opacity="1"></stop><stop offset="80%" stop-color="#a4f9f0" stop-opacity="1"></stop></linearGradient></defs><defs><linearGradient id="grad2_3" x1="0%" y1="0%" x2="66.7%" y2="100%"><stop offset="20%" stop-color="#90f8cc" stop-opacity="1"></stop><stop offset="80%" stop-color="#a4f9f0" stop-opacity="1"></stop></linearGradient></defs><defs><linearGradient id="grad2_4" x1="0%" y1="0%" x2="66.7%" y2="100%"><stop offset="20%" stop-color="#90f8cc" stop-opacity="1"></stop><stop offset="80%" stop-color="#9ff197" stop-opacity="1"></stop></linearGradient></defs><defs><linearGradient id="grad2_5" x1="0%" y1="0%" x2="66.7%" y2="100%"><stop offset="20%" stop-color="#c4e45a" stop-opacity="1"></stop><stop offset="80%" stop-color="#9ff197" stop-opacity="1"></stop></linearGradient></defs><defs><linearGradient id="grad2_6" x1="0%" y1="0%" x2="66.7%" y2="100%"><stop offset="20%" stop-color="#c4e45a" stop-opacity="1"></stop><stop offset="80%" stop-color="#f4ce14" stop-opacity="1"></stop></linearGradient></defs><g transform="translate(900, 0)"><path d="M0 351.5C-42.4 338 -84.8 324.4 -128.2 309.5C-171.5 294.6 -215.8 278.4 -248.6 248.6C-281.3 218.8 -302.6 175.3 -317.8 131.6C-333.1 87.9 -342.3 44 -351.5 0L0 0Z" fill="#dbda3a"></path><path d="M0 301.3C-36.4 289.7 -72.7 278.1 -109.9 265.3C-147 252.5 -185 238.6 -213.1 213.1C-241.1 187.5 -259.3 150.3 -272.4 112.8C-285.5 75.4 -293.4 37.7 -301.3 0L0 0Z" fill="#b0eb79"></path><path d="M0 251.1C-30.3 241.4 -60.6 231.7 -91.6 221.1C-122.5 210.4 -154.2 198.9 -177.6 177.6C-201 156.3 -216.1 125.2 -227 94C-237.9 62.8 -244.5 31.4 -251.1 0L0 0Z" fill="#94f5b3"></path><path d="M0 200.9C-24.2 193.1 -48.5 185.4 -73.3 176.9C-98 168.3 -123.3 159.1 -142 142C-160.8 125 -172.9 100.2 -181.6 75.2C-190.3 50.3 -195.6 25.1 -200.9 0L0 0Z" fill="#96f9e0"></path><path d="M0 150.7C-18.2 144.8 -36.4 139 -54.9 132.6C-73.5 126.3 -92.5 119.3 -106.5 106.5C-120.6 93.8 -129.7 75.1 -136.2 56.4C-142.7 37.7 -146.7 18.8 -150.7 0L0 0Z" fill="#b7f9fa"></path><path d="M0 100.4C-12.1 96.6 -24.2 92.7 -36.6 88.4C-49 84.2 -61.7 79.5 -71 71C-80.4 62.5 -86.4 50.1 -90.8 37.6C-95.2 25.1 -97.8 12.6 -100.4 0L0 0Z" fill="#e3f7fd"></path><path d="M0 50.2C-6.1 48.3 -12.1 46.3 -18.3 44.2C-24.5 42.1 -30.8 39.8 -35.5 35.5C-40.2 31.3 -43.2 25 -45.4 18.8C-47.6 12.6 -48.9 6.3 -50.2 0L0 0Z" fill="#f5f7f8"></path></g><g transform="translate(0, 600)"><path d="M0 -351.5C45.4 -342.8 90.8 -334.1 130.9 -316C171 -297.9 205.9 -270.4 239.7 -239.7C273.5 -209 306.3 -175 324.8 -134.5C343.2 -94 347.4 -47 351.5 0L0 0Z" fill="#dbda3a"></path><path d="M0 -301.3C38.9 -293.8 77.8 -286.3 112.2 -270.8C146.6 -255.3 176.5 -231.8 205.5 -205.5C234.5 -179.1 262.6 -150 278.4 -115.3C294.2 -80.6 297.8 -40.3 301.3 0L0 0Z" fill="#b0eb79"></path><path d="M0 -251.1C32.4 -244.9 64.8 -238.6 93.5 -225.7C122.1 -212.8 147.1 -193.2 171.2 -171.2C195.4 -149.3 218.8 -125 232 -96.1C245.2 -67.2 248.1 -33.6 251.1 0L0 0Z" fill="#94f5b3"></path><path d="M0 -200.9C25.9 -195.9 51.9 -190.9 74.8 -180.6C97.7 -170.2 117.6 -154.5 137 -137C156.3 -119.4 175 -100 185.6 -76.9C196.1 -53.7 198.5 -26.9 200.9 0L0 0Z" fill="#96f9e0"></path><path d="M0 -150.7C19.4 -146.9 38.9 -143.2 56.1 -135.4C73.3 -127.7 88.2 -115.9 102.7 -102.7C117.2 -89.6 131.3 -75 139.2 -57.7C147.1 -40.3 148.9 -20.2 150.7 0L0 0Z" fill="#b7f9fa"></path><path d="M0 -100.4C13 -97.9 25.9 -95.4 37.4 -90.3C48.9 -85.1 58.8 -77.3 68.5 -68.5C78.2 -59.7 87.5 -50 92.8 -38.4C98.1 -26.9 99.3 -13.4 100.4 0L0 0Z" fill="#e3f7fd"></path><path d="M0 -50.2C6.5 -49 13 -47.7 18.7 -45.1C24.4 -42.6 29.4 -38.6 34.2 -34.2C39.1 -29.9 43.8 -25 46.4 -19.2C49 -13.4 49.6 -6.7 50.2 0L0 0Z" fill="#f5f7f8"></path></g></svg>