<svg xmlns="http://www.w3.org/2000/svg" version="1.1" xmlns:xlink="http://www.w3.org/1999/xlink" xmlns:svgjs="http://svgjs.dev/svgjs" width="1440" height="560" preserveAspectRatio="none" viewBox="0 0 1440 560"><g mask="url(&quot;#SvgjsMask1525&quot;)" fill="none"><rect width="1440" height="560" x="0" y="0" fill="rgba(244, 206, 20, 1)"></rect><rect width="328.32" height="328.32" clip-path="url(&quot;#SvgjsClipPath1526&quot;)" x="1139.48" y="-106.67" fill="url(&quot;#SvgjsPattern1527&quot;)" transform="rotate(284.83, 1303.64, 57.49)"></rect><rect width="209.92" height="209.92" clip-path="url(&quot;#SvgjsClipPath1528&quot;)" x="879.73" y="30.34" fill="url(&quot;#SvgjsPattern1529&quot;)" transform="rotate(217.57, 984.69, 135.3)"></rect><circle r="70.90175460030714" cx="496.19" cy="15.73" fill="rgba(55, 48, 12, 1)"></circle><path d="M647.8000000000001 581.44 L671.75 590.51L676.5388767123097 569.2111232876904z" fill="rgba(161, 152, 106, 1)"></path><path d="M1361.01 323.91 L1361.85 401.92L1330.6693079676736 393.6756920323263z" fill="rgba(161, 152, 106, 1)"></path><path d="M593.01 418.18a5.6 5.6 0 1 0-8.48 7.32 5.6 5.6 0 1 0 8.48-7.32zM580.9 428.64a5.6 5.6 0 1 0-8.47 7.33 5.6 5.6 0 1 0 8.47-7.33zM568.8 439.11a5.6 5.6 0 1 0-8.48 7.32 5.6 5.6 0 1 0 8.48-7.32zM556.69 449.57a5.6 5.6 0 1 0-8.47 7.32 5.6 5.6 0 1 0 8.47-7.32zM606.75 385.15a5.6 5.6 0 1 0-8.47 7.32 5.6 5.6 0 1 0 8.47-7.32zM594.65 395.61a5.6 5.6 0 1 0-8.48 7.33 5.6 5.6 0 1 0 8.48-7.33zM582.54 406.07a5.6 5.6 0 1 0-8.47 7.33 5.6 5.6 0 1 0 8.47-7.33zM570.44 416.54a5.6 5.6 0 1 0-8.47 7.32 5.6 5.6 0 1 0 8.47-7.32zM620.5 352.12a5.6 5.6 0 1 0-8.47 7.32 5.6 5.6 0 1 0 8.47-7.32zM608.39 362.58a5.6 5.6 0 1 0-8.47 7.32 5.6 5.6 0 1 0 8.47-7.32zM596.29 373.04a5.6 5.6 0 1 0-8.47 7.33 5.6 5.6 0 1 0 8.47-7.33zM584.18 383.51a5.6 5.6 0 1 0-8.47 7.32 5.6 5.6 0 1 0 8.47-7.32z" fill="rgba(79, 72, 38, 1)"></path><rect width="288" height="288" clip-path="url(&quot;#SvgjsClipPath1530&quot;)" x="1010.34" y="131.12" fill="url(&quot;#SvgjsPattern1531&quot;)" transform="rotate(156.33, 1154.34, 275.12)"></rect><path d="M644.49 630.08 L715.95 543.59L737.2598305359129 643.8748305359129z" stroke="rgba(79, 72, 38, 1)" stroke-width="1"></path><path d="M1209.55 34.9 L1188.03 84.88000000000001L1164.4968855035072 25.59688550350723z" fill="rgba(55, 48, 12, 1)"></path><rect width="278.12" height="278.12" clip-path="url(&quot;#SvgjsClipPath1532&quot;)" x="-129.26" y="379.73" fill="url(&quot;#SvgjsPattern1533&quot;)" transform="rotate(261.71, 9.8, 518.79)"></rect><path d="M451.22 281.96L439.46 276.89 441.82 264.3 430.06 259.23 432.43 246.65 420.67 241.58 423.03 228.99M458.28 278.2L446.52 273.13 448.88 260.54 437.12 255.48 439.49 242.89 427.73 237.82 430.09 225.23" stroke="rgba(55, 48, 12, 1)" stroke-width="1.08"></path><path d="M1024.77 392.21L1012.41 395.57 1006.42 384.25 994.06 387.61 988.07 376.29 975.71 379.66 969.72 368.34M1027.95 384.87L1015.6 388.23 1009.6 376.91 997.25 380.27 991.25 368.95 978.9 372.32 972.9 361M1031.14 377.53L1018.78 380.89 1012.79 369.57 1000.43 372.93 994.44 361.61 982.08 364.98 976.09 353.66" stroke="rgba(79, 72, 38, 1)" stroke-width="1.55" stroke-dasharray="3, 3"></path></g><defs><mask id="SvgjsMask1525"><rect width="1440" height="560" fill="#ffffff"></rect></mask><pattern x="0" y="0" width="328.32" height="6.08" patternUnits="userSpaceOnUse" id="SvgjsPattern1527"><rect width="328.32" height="3.04" x="0" y="0" fill="rgba(55, 48, 12, 1)"></rect><rect width="328.32" height="3.04" x="0" y="3.04" fill="rgba(0, 0, 0, 0)"></rect></pattern><clipPath id="SvgjsClipPath1526"><circle r="82.08" cx="1303.64" cy="57.49"></circle></clipPath><pattern x="0" y="0" width="209.92" height="6.56" patternUnits="userSpaceOnUse" id="SvgjsPattern1529"><rect width="209.92" height="3.28" x="0" y="0" fill="rgba(161, 152, 106, 1)"></rect><rect width="209.92" height="3.28" x="0" y="3.28" fill="rgba(0, 0, 0, 0)"></rect></pattern><clipPath id="SvgjsClipPath1528"><circle r="52.48" cx="984.69" cy="135.3"></circle></clipPath><pattern x="0" y="0" width="288" height="6" patternUnits="userSpaceOnUse" id="SvgjsPattern1531"><rect width="288" height="3" x="0" y="0" fill="rgba(161, 152, 106, 1)"></rect><rect width="288" height="3" x="0" y="3" fill="rgba(0, 0, 0, 0)"></rect></pattern><clipPath id="SvgjsClipPath1530"><circle r="72" cx="1154.34" cy="275.12"></circle></clipPath><pattern x="0" y="0" width="8.18" height="8.18" patternUnits="userSpaceOnUse" id="SvgjsPattern1533"><path d="M0 8.18L4.09 0L8.18 8.18" stroke="rgba(161, 152, 106, 1)" fill="none"></path></pattern><clipPath id="SvgjsClipPath1532"><circle r="69.53" cx="9.8" cy="518.79"></circle></clipPath></defs></svg>